<?xml version="1.0" encoding="iso-8859-1"?>
<!-- Generator: Adobe Illustrator 19.0.0, SVG Export Plug-In . SVG Version: 6.00 Build 0)  -->
<svg version="1.1" id="Capa_1" xmlns="http://www.w3.org/2000/svg" xmlns:xlink="http://www.w3.org/1999/xlink" x="0px" y="0px"
	 viewBox="0 0 448 448" style="enable-background:new 0 0 448 448;" xml:space="preserve">
<path style="fill:#F3F3F3;" d="M352,84.412c-7.688,0-13.128,1.056-20.576,2.328C305.496,40.604,265.4,20.412,224,20.412
	c-41.448,0-81.728,20.344-107.424,66.328c-7.448-1.272-12.888-2.328-20.576-2.328c-48.512,0-88,39.48-88,88s39.488,88,88,88h256
	c48.512,0,88-39.48,88-88S400.512,84.412,352,84.412z"/>
<path style="fill:#E1E1E1;" d="M352,84.412c-7.688,0-13.136,1.056-20.576,2.328l-6.128,6.128
	c6.792,14.448,10.704,30.52,10.704,47.544c0,61.856-50.144,112-112,112v8h128c48.512,0,88-39.48,88-88S400.512,84.412,352,84.412z"
	/>
<g>
	<path style="fill:#010101;" d="M352,76.412c-5.584,0-11.032,0.576-16.352,1.496C313.728,38.844,271.976,12.412,224,12.412
		s-89.728,26.432-111.648,65.496c-5.32-0.92-10.76-1.496-16.352-1.496c-53.016,0-96,42.984-96,96s42.984,96,96,96h256
		c53.016,0,96-42.984,96-96S405.016,76.412,352,76.412z M352,252.412H96c-44.112,0-80-35.888-80-80s35.888-80,80-80
		c4.24,0,8.704,0.416,13.648,1.264l11.136,1.912l5.528-9.856c19.832-35.352,57.272-57.32,97.688-57.32s77.848,21.968,97.696,57.328
		l5.528,9.856l11.136-1.92c4.936-0.848,9.4-1.264,13.64-1.264c44.112,0,80,35.888,80,80S396.112,252.412,352,252.412z"/>
	<path style="fill:#010101;" d="M231.592,293.636c-4.144-1.392-8.72,0.864-10.128,5.056l-42.12,126.36
		c-1.392,4.192,0.872,8.728,5.064,10.12c0.84,0.28,1.688,0.416,2.528,0.416c3.344,0,6.472-2.12,7.592-5.472l42.128-126.36
		C238.048,299.564,235.784,295.028,231.592,293.636z"/>
	<path style="fill:#010101;" d="M151.592,293.636c-4.168-1.392-8.704,0.864-10.128,5.056l-26.128,78.36
		c-1.392,4.192,0.872,8.728,5.064,10.12c0.84,0.28,1.688,0.416,2.528,0.416c3.344,0,6.472-2.12,7.592-5.472l26.128-78.36
		C158.048,299.564,155.784,295.028,151.592,293.636z"/>
	<path style="fill:#010101;" d="M311.592,293.636c-4.184-1.392-8.704,0.864-10.128,5.056l-26.128,78.36
		c-1.392,4.192,0.872,8.728,5.064,10.12c0.84,0.28,1.688,0.416,2.528,0.416c3.344,0,6.472-2.12,7.592-5.472l26.128-78.36
		C318.048,299.564,315.784,295.028,311.592,293.636z"/>
</g>
<g>
</g>
<g>
</g>
<g>
</g>
<g>
</g>
<g>
</g>
<g>
</g>
<g>
</g>
<g>
</g>
<g>
</g>
<g>
</g>
<g>
</g>
<g>
</g>
<g>
</g>
<g>
</g>
<g>
</g>
</svg>
