<?xml version="1.0" encoding="iso-8859-1"?>
<!-- Generator: Adobe Illustrator 19.0.0, SVG Export Plug-In . SVG Version: 6.00 Build 0)  -->
<svg version="1.1" id="Capa_1" xmlns="http://www.w3.org/2000/svg" xmlns:xlink="http://www.w3.org/1999/xlink" x="0px" y="0px"
	 viewBox="0 0 448 448" style="enable-background:new 0 0 448 448;" xml:space="preserve">
<g>
	<path style="fill:#A4C4E7;" d="M96.016,406.492c-11.952,0-24.016-7.336-24.016-23.736c0-11.664,10.576-21.56,21.784-32.056
		c0.736-0.696,1.48-1.392,2.216-2.088c0.736,0.696,1.48,1.392,2.216,2.088c11.2,10.496,21.784,20.392,21.784,32.056
		c0,7.544-2.456,13.536-7.28,17.808C108.44,404.332,102.36,406.492,96.016,406.492z"/>
	<path style="fill:#A4C4E7;" d="M384.016,406.492c-11.952,0-24.016-7.336-24.016-23.736c0-11.664,10.576-21.56,21.784-32.056
		c0.736-0.696,1.488-1.392,2.216-2.088c0.736,0.696,1.488,1.392,2.216,2.088c11.2,10.496,21.784,20.392,21.784,32.056
		c0,7.544-2.456,13.536-7.28,17.808C396.44,404.332,390.36,406.492,384.016,406.492z"/>
</g>
<path style="fill:#F3F3F3;" d="M352,105.508c-7.688,0-13.128,1.056-20.576,2.328C305.496,61.7,265.4,41.508,224,41.508
	c-41.448,0-81.728,20.344-107.424,66.328c-7.448-1.272-12.888-2.328-20.576-2.328c-48.512,0-88,39.48-88,88s39.488,88,88,88h256
	c48.512,0,88-39.48,88-88S400.512,105.508,352,105.508z"/>
<path style="fill:#E1E1E1;" d="M352,105.508c-7.688,0-13.136,1.056-20.576,2.328l-6.128,6.128
	c6.792,14.448,10.704,30.52,10.704,47.544c0,61.856-50.144,112-112,112v8h128c48.512,0,88-39.48,88-88S400.512,105.508,352,105.508z
	"/>
<polygon style="fill:#F9DB7B;" points="200,281.508 126.608,281.508 216,141.564 216,233.508 289.424,233.508 200,374.036 "/>
<g>
	<path style="fill:#010101;" d="M96,337.508c-13.808,13.808-32,26.832-32,45.248c0,21.152,16.008,31.736,32.008,31.736
		S128,403.924,128,382.756C128,364.34,109.808,351.316,96,337.508z M96.016,398.492c-2.672,0-16.016-0.76-16.016-15.736
		c0-7.28,7.4-15.016,16-23.16c8.6,8.144,16,15.872,16,23.16C112,397.732,98.688,398.492,96.016,398.492z"/>
	<path style="fill:#010101;" d="M384,337.508c-13.808,13.808-32,26.832-32,45.248c0,21.152,16.008,31.736,32.016,31.736
		c15.992,0,31.984-10.568,31.984-31.736C416,364.34,397.808,351.316,384,337.508z M384.016,398.492
		c-2.672,0-16.016-0.76-16.016-15.736c0-7.28,7.4-15.016,16-23.16c8.6,8.144,16,15.872,16,23.16
		C400,397.732,386.688,398.492,384.016,398.492z"/>
	<path style="fill:#010101;" d="M304,225.508h-80V114.18L112,289.508h80v112L304,225.508z M141.208,273.508L208,168.948
		c0,18.664,0,31.352,0,72.56c24.928,0,27.72,0,66.848,0L208,346.564c0-92.376,0-33.32,0-73.056
		C168.544,273.508,165.944,273.508,141.208,273.508z"/>
	<path style="fill:#010101;" d="M352,97.508c-6.28,0-11.248,0.648-16.472,1.504C309.904,56.716,270.496,33.508,224,33.508
		c-46.608,0-86.032,23.208-111.544,65.504c-5.208-0.856-10.176-1.504-16.456-1.504c-52.936,0-96,43.064-96,96
		c0,49.752,37.328,90.832,86.816,95.56c4.264,0.512,8.296-2.792,8.736-7.2c0.424-4.4-2.816-8.304-7.2-8.72
		C47.096,269.204,16,234.972,16,193.508c0-44.112,35.888-80,80-80c8.008,0,16.384,1.728,24.8,3.168
		c23.176-41.312,55.424-67.168,103.2-67.168c46.864,0,79.728,25.216,103.2,67.168c8.416-1.44,16.792-3.168,24.8-3.168
		c44.112,0,80,35.888,80,80s-35.888,80-80,80h-56.144c-4.424,0-8,3.576-8,8s3.576,8,8,8H352c52.936,0,96-43.064,96-96
		S404.936,97.508,352,97.508z"/>
</g>
<g>
</g>
<g>
</g>
<g>
</g>
<g>
</g>
<g>
</g>
<g>
</g>
<g>
</g>
<g>
</g>
<g>
</g>
<g>
</g>
<g>
</g>
<g>
</g>
<g>
</g>
<g>
</g>
<g>
</g>
</svg>
