<svg version="1.1" id="Capa_1" xmlns="http://www.w3.org/2000/svg" xmlns:xlink="http://www.w3.org/1999/xlink" x="0px" y="0px"
	 viewBox="0 0 512 512" style="enable-background:new 0 0 512 512;" xml:space="preserve">
<path style="fill:#FCF1CE;" d="M245.144,412.548c-5.752-9.584-15.872-15.312-27.08-15.312c-6.784,0-13.264,2.144-18.752,6.192
	l-16.952,12.568l-3.128-20.88c-2.28-15.336-15.672-26.904-31.16-26.904c-2.576,0-5.16,0.32-7.672,0.952l-20.488,5.12l5.128-20.488
	c2.16-8.608,0.56-17.784-4.376-25.168c-4.936-7.384-12.816-12.368-21.592-13.672l-20.888-3.112l12.576-16.96
	c5.296-7.144,7.328-16.224,5.592-24.936c-1.72-8.712-7.08-16.32-14.704-20.88l-18.104-10.864L81.64,227.34
	c7.624-4.568,12.984-12.184,14.72-20.896c1.736-8.704-0.296-17.792-5.592-24.92l-12.56-16.96l20.872-3.112
	c8.8-1.312,16.656-6.296,21.592-13.68c4.936-7.384,6.528-16.552,4.376-25.168l-5.16-20.584l20.52,5.216
	c2.52,0.632,5.096,0.952,7.672,0.952c15.48,0,28.872-11.56,31.16-26.896l3.128-20.888L199.32,72.98
	c5.48,4.056,11.968,6.192,18.752,6.192c11.2,0,21.328-5.728,27.08-15.312L256,45.756l10.856,18.104
	c5.752,9.584,15.872,15.312,27.08,15.312c6.8,0,13.264-2.144,18.752-6.192l16.952-12.576l3.128,20.888
	c2.28,15.336,15.672,26.896,31.16,26.896c2.576,0,5.16-0.32,7.672-0.952l20.488-5.12l-5.128,20.488
	c-2.16,8.6-0.56,17.776,4.376,25.16s12.8,12.368,21.592,13.68l20.872,3.112l-12.56,16.96c-5.296,7.136-7.328,16.208-5.592,24.92
	c1.72,8.712,7.08,16.328,14.688,20.896l18.12,10.872l-18.112,10.864c-7.624,4.56-12.984,12.168-14.704,20.88
	c-1.736,8.712,0.296,17.8,5.592,24.936l12.576,16.96l-20.888,3.112c-8.784,1.304-16.656,6.288-21.592,13.672
	s-6.528,16.552-4.376,25.168l5.16,20.584l-20.512-5.224c-2.512-0.632-5.096-0.952-7.672-0.952c-15.488,0-28.872,11.568-31.16,26.904
	l-3.128,20.88l-16.952-12.568c-5.488-4.056-11.968-6.192-18.752-6.192c-11.2,0-21.328,5.728-27.08,15.312L256,430.652
	L245.144,412.548z"/>
<g>
	<path style="fill:#010101;" d="M138.456,361.404l-7.544,1.888l1.888-7.552c2.696-10.8,0.696-22.304-5.48-31.552
		c-6.184-9.256-16.048-15.504-27.056-17.144l-7.696-1.144l4.632-6.256c1.264-1.712,2.24-3.576,3.208-5.448H81.32l-13.704,18.496
		c-1.712,2.312-0.344,5.616,2.496,6.04l27.792,4.136c13.752,2.048,22.744,15.504,19.368,28.992l-6.816,27.264
		c-0.616,2.472,1.296,4.736,3.68,4.736c0.312,0,0.624-0.04,0.944-0.12l27.256-6.816c1.92-0.48,3.848-0.712,5.736-0.712
		c4.936,0,9.496,1.792,13.376,4.536l11.504-11.504c-6.864-5.616-15.544-9.024-24.88-9.024
		C144.848,360.212,141.616,360.612,138.456,361.404z"/>
	<path style="fill:#010101;" d="M77.536,255.932c5.528,3.32,9.08,8.544,10.568,14.272h16.264c-0.088-0.6-0.04-1.208-0.168-1.808
		c-2.168-10.92-8.888-20.464-18.432-26.192l-6.672-4l6.68-4.008c9.544-5.728,16.264-15.272,18.432-26.192
		s-0.384-22.312-7.016-31.256L92.56,170.5l7.696-1.144c11.008-1.64,20.872-7.888,27.056-17.136c6.184-9.256,8.184-20.76,5.48-31.56
		l-1.888-7.552l7.552,1.888c3.152,0.792,6.384,1.184,9.616,1.184c19.416,0,36.216-14.496,39.08-33.72l1.152-7.696l6.256,4.632
		c6.864,5.08,14.992,7.768,23.504,7.768c13.824,0,26.824-7.36,33.928-19.2L256,61.3l4,6.672c7.104,11.84,20.104,19.2,33.928,19.2
		c8.512,0,16.648-2.688,23.504-7.776l6.256-4.632l1.152,7.696c2.856,19.224,19.664,33.72,39.08,33.72c3.224,0,6.464-0.4,9.616-1.184
		l7.552-1.888l-1.888,7.56c-2.696,10.8-0.696,22.304,5.488,31.552c6.184,9.256,16.048,15.504,27.056,17.144l7.696,1.144
		l-4.632,6.248c-6.632,8.944-9.184,20.336-7.008,31.256c2.168,10.92,8.888,20.464,18.432,26.192l6.672,4l-6.672,4
		c-9.544,5.728-16.264,15.272-18.44,26.184c-0.12,0.6-0.072,1.208-0.168,1.808h16.264c1.488-5.736,5.04-10.952,10.568-14.272
		l24.096-14.456c2.472-1.48,2.472-5.056,0-6.536l-24.096-14.456c-11.92-7.152-15.08-23.024-6.8-34.2l16.728-22.576
		c1.712-2.312,0.344-5.616-2.496-6.032l-27.792-4.136c-13.752-2.048-22.744-15.504-19.368-28.992l6.816-27.256
		c0.616-2.472-1.296-4.736-3.68-4.736c-0.312,0-0.624,0.04-0.944,0.12l-27.264,6.816c-1.92,0.48-3.848,0.712-5.736,0.712
		c-11.36,0-21.504-8.288-23.256-20.08l-4.136-27.792c-0.296-1.984-1.992-3.256-3.776-3.256c-0.776,0-1.56,0.232-2.256,0.752
		L307.92,66.548c-4.232,3.136-9.136,4.624-13.984,4.624c-7.96,0-15.768-4.024-20.208-11.432l-14.456-24.096
		c-0.744-1.232-2.008-1.848-3.272-1.848s-2.528,0.616-3.264,1.848L238.28,59.74c-4.448,7.408-12.256,11.432-20.208,11.432
		c-4.848,0-9.752-1.496-13.984-4.624L181.512,49.82c-0.696-0.512-1.48-0.752-2.256-0.752c-1.784,0-3.48,1.264-3.776,3.256
		l-4.136,27.792c-1.752,11.792-11.896,20.08-23.256,20.08c-1.888,0-3.808-0.232-5.736-0.712l-27.264-6.816
		c-0.32-0.08-0.632-0.12-0.944-0.12c-2.384,0-4.296,2.264-3.68,4.736l6.816,27.264c3.368,13.488-5.616,26.944-19.368,28.992
		l-27.792,4.136c-2.848,0.424-4.216,3.728-2.496,6.032l16.728,22.576c8.28,11.168,5.12,27.048-6.8,34.2L53.456,234.94
		c-2.472,1.48-2.472,5.056,0,6.536L77.536,255.932z"/>
	<path style="fill:#010101;" d="M430.68,294.204h-19.088c0.968,1.872,1.944,3.736,3.208,5.448l4.632,6.256l-7.696,1.144
		c-11.008,1.64-20.872,7.888-27.056,17.144s-8.184,20.76-5.488,31.56l1.888,7.552l-7.536-1.904c-3.16-0.784-6.392-1.192-9.616-1.192
		c-9.336,0-18.016,3.408-24.88,9.024l11.504,11.504c3.88-2.736,8.44-4.536,13.376-4.536c1.888,0,3.816,0.232,5.736,0.712
		l27.264,6.816c0.32,0.08,0.632,0.12,0.944,0.12c2.384,0,4.296-2.264,3.68-4.736l-6.816-27.264
		c-3.368-13.488,5.616-26.944,19.368-28.992l27.792-4.136c2.84-0.424,4.216-3.728,2.496-6.04L430.68,294.204z"/>
</g>
<path style="fill:#F9DB7B;" d="M256,358.204c-66.168,0-120-53.832-120-120s53.832-120,120-120s120,53.832,120,120
	S322.168,358.204,256,358.204z"/>
<g>
	<path style="fill:#010101;" d="M192.792,349.42l11.816-11.816C168.656,318.94,144,281.428,144,238.204c0-61.76,50.24-112,112-112
		s112,50.24,112,112c0,43.224-24.656,80.736-60.6,99.4l11.816,11.816C357.88,327.388,384,285.884,384,238.204
		c0-70.696-57.304-128-128-128c-70.688,0-128,57.304-128,128C128,285.884,154.128,327.388,192.792,349.42z"/>
	<polygon style="fill:#010101;" points="256,478.204 329.528,404.66 318.216,393.348 264,447.58 264,334.204 248,334.204 
		248,447.58 193.784,393.348 182.472,404.66 	"/>
</g>
<rect y="286.204" style="fill:#010101;" width="512" height="16"/>
</svg>
